<svg width="180" height="180" viewBox="0 0 180 180" fill="none" xmlns="http://www.w3.org/2000/svg">
<rect width="180" height="180" rx="20" fill="black"/>
<path d="M116.197 100.467V61.5709C116.197 59.778 118.374 58.8908 119.627 60.1731L137.43 78.3912C137.796 78.7649 138 79.2666 138 79.789V118.579C138 120.369 135.829 121.258 134.574 119.981L116.77 101.869C116.403 101.495 116.197 100.991 116.197 100.467Z" fill="#D9D9D9"/>
<path d="M116.778 144.44L134.039 127.815C135.335 126.567 134.451 124.375 132.651 124.375H67.0628C65.9583 124.375 65.0628 123.48 65.0628 122.375V39.7666C65.0628 37.9936 62.9267 37.0974 61.6616 38.3395L43.5988 56.0748C43.2158 56.4509 43 56.9651 43 57.5019V123.473C43 124.046 43.2463 124.592 43.6763 124.972L65.7935 144.499C66.159 144.822 66.6297 145 67.1172 145H115.39C115.908 145 116.405 144.799 116.778 144.44Z" fill="#D9D9D9"/>
<path d="M116.197 100.467V61.5709C116.197 59.778 118.374 58.8908 119.627 60.1731L137.43 78.3912C137.796 78.7649 138 79.2666 138 79.789V118.579C138 120.369 135.829 121.258 134.574 119.981L116.77 101.869C116.403 101.495 116.197 100.991 116.197 100.467Z" stroke="black"/>
<path d="M116.778 144.44L134.039 127.815C135.335 126.567 134.451 124.375 132.651 124.375H67.0628C65.9583 124.375 65.0628 123.48 65.0628 122.375V39.7666C65.0628 37.9936 62.9267 37.0974 61.6616 38.3395L43.5988 56.0748C43.2158 56.4509 43 56.9651 43 57.5019V123.473C43 124.046 43.2463 124.592 43.6763 124.972L65.7935 144.499C66.159 144.822 66.6297 145 67.1172 145H115.39C115.908 145 116.405 144.799 116.778 144.44Z" stroke="black"/>
</svg>
