<svg width="192" height="192" viewBox="0 0 192 192" fill="none" xmlns="http://www.w3.org/2000/svg">
<rect width="192" height="192" rx="20" fill="black"/>
<path d="M124.131 101.491V58.528C124.131 56.7367 126.305 55.8487 127.559 57.1276L147.428 77.3884C147.795 77.7623 148 78.265 148 78.7887V121.634C148 123.422 145.832 124.312 144.576 123.038L124.707 102.895C124.338 102.521 124.131 102.017 124.131 101.491Z" fill="#D9D9D9"/>
<path d="M124.712 149.443L143.987 130.943C145.286 129.695 144.403 127.5 142.602 127.5H70.153C69.0484 127.5 68.153 126.605 68.153 125.5V34.755C68.153 32.9836 66.0204 32.0866 64.7543 33.3254L44.6013 53.0438C44.2167 53.42 44 53.9353 44 54.4733V126.596C44 127.171 44.2473 127.718 44.6789 128.097L69.0072 149.502C69.3724 149.823 69.842 150 70.3283 150H123.327C123.843 150 124.339 149.8 124.712 149.443Z" fill="#D9D9D9"/>
<path d="M124.131 101.491V58.528C124.131 56.7367 126.305 55.8487 127.559 57.1276L147.428 77.3884C147.795 77.7623 148 78.265 148 78.7887V121.634C148 123.422 145.832 124.312 144.576 123.038L124.707 102.895C124.338 102.521 124.131 102.017 124.131 101.491Z" stroke="black"/>
<path d="M124.712 149.443L143.987 130.943C145.286 129.695 144.403 127.5 142.602 127.5H70.153C69.0484 127.5 68.153 126.605 68.153 125.5V34.755C68.153 32.9836 66.0204 32.0866 64.7543 33.3254L44.6013 53.0438C44.2167 53.42 44 53.9353 44 54.4733V126.596C44 127.171 44.2473 127.718 44.6789 128.097L69.0072 149.502C69.3724 149.823 69.842 150 70.3283 150H123.327C123.843 150 124.339 149.8 124.712 149.443Z" stroke="black"/>
</svg>
