<svg width="512" height="512" viewBox="0 0 512 512" fill="none" xmlns="http://www.w3.org/2000/svg">
<rect width="512" height="512" rx="60" fill="black"/>
<path d="M323.623 284.935V173.025C323.623 171.232 325.802 170.345 327.055 171.629L380.432 226.349C380.796 226.723 381 227.224 381 227.746V339.337C381 341.128 378.827 342.016 377.572 340.738L324.195 286.336C323.828 285.962 323.623 285.459 323.623 284.935Z" fill="#D9D9D9"/>
<path d="M324.204 400.439L376.411 350.064C377.706 348.815 376.821 346.625 375.022 346.625H191.06C189.956 346.625 189.06 345.73 189.06 344.625V115.773C189.06 113.999 186.922 113.103 185.658 114.347L131.597 167.523C131.215 167.899 131 168.413 131 168.949V345.724C131 346.297 131.246 346.842 131.675 347.222L191.908 400.498C192.274 400.822 192.745 401 193.233 401H322.815C323.333 401 323.831 400.799 324.204 400.439Z" fill="#D9D9D9"/>
<path d="M323.623 284.935V173.025C323.623 171.232 325.802 170.345 327.055 171.629L380.432 226.349C380.796 226.723 381 227.224 381 227.746V339.337C381 341.128 378.827 342.016 377.572 340.738L324.195 286.336C323.828 285.962 323.623 285.459 323.623 284.935Z" stroke="black"/>
<path d="M324.204 400.439L376.411 350.064C377.706 348.815 376.821 346.625 375.022 346.625H191.06C189.956 346.625 189.06 345.73 189.06 344.625V115.773C189.06 113.999 186.922 113.103 185.658 114.347L131.597 167.523C131.215 167.899 131 168.413 131 168.949V345.724C131 346.297 131.246 346.842 131.675 347.222L191.908 400.498C192.274 400.822 192.745 401 193.233 401H322.815C323.333 401 323.831 400.799 324.204 400.439Z" stroke="black"/>
</svg>
