<svg width="425" height="425" viewBox="0 0 425 425" fill="none" xmlns="http://www.w3.org/2000/svg">
<path d="M312 254.682V88.4099C312 86.6167 314.178 85.7296 315.431 87.0124L395.431 168.917C395.796 169.291 396 169.792 396 170.315V336.111C396 337.901 393.828 338.789 392.573 337.512L312.573 256.084C312.206 255.71 312 255.206 312 254.682Z" fill="#D9D9D9"/>
<path d="M312.581 423.44L390.93 347.94C392.226 346.691 391.342 344.5 389.542 344.5H117C115.895 344.5 115 343.605 115 342.5V4.76829C115 2.99505 112.863 2.09889 111.598 3.34154L30.5984 82.9121C30.2156 83.2882 30 83.8023 30 84.3389V343.598C30 344.172 30.2461 344.717 30.6759 345.097L119.433 423.499C119.798 423.822 120.269 424 120.757 424H311.193C311.711 424 312.208 423.799 312.581 423.44Z" fill="#D9D9D9"/>
<path d="M312 254.682V88.4099C312 86.6167 314.178 85.7296 315.431 87.0124L395.431 168.917C395.796 169.291 396 169.792 396 170.315V336.111C396 337.901 393.828 338.789 392.573 337.512L312.573 256.084C312.206 255.71 312 255.206 312 254.682Z" stroke="black"/>
<path d="M312.581 423.44L390.93 347.94C392.226 346.691 391.342 344.5 389.542 344.5H117C115.895 344.5 115 343.605 115 342.5V4.76829C115 2.99505 112.863 2.09889 111.598 3.34154L30.5984 82.9121C30.2156 83.2882 30 83.8023 30 84.3389V343.598C30 344.172 30.2461 344.717 30.6759 345.097L119.433 423.499C119.798 423.822 120.269 424 120.757 424H311.193C311.711 424 312.208 423.799 312.581 423.44Z" stroke="black"/>
</svg>
